<svg width="178" height="60" viewBox="0 0 178 60" fill="none" xmlns="http://www.w3.org/2000/svg">
<g filter="url(#filter0_d_4263_16113)">
<rect x="16" y="6" width="155" height="46" rx="8" fill="#1A1E27" fill-opacity="0.8" shape-rendering="crispEdges"/>
<path d="M39.1387 15.0801V18.498H40.5449V19.2793H39.1387V23.8496H38.2207V15.0801H39.1387ZM36.668 15.8711V19.084H33.6016V20.9785C35.1055 20.9736 36.2188 20.9199 37.498 20.6855L37.5859 21.4375C36.2188 21.6914 35.0371 21.75 33.3965 21.7598H32.6836V18.332H35.75V16.623H32.6641V15.8711H36.668ZM48.2207 15.0898V21.4473H47.293V15.0898H48.2207ZM48.4844 22.8926V23.6445H42.498V20.8027H43.4355V22.8926H48.4844ZM43.4746 15.6758C44.793 15.6758 45.7988 16.5742 45.7988 17.8438C45.7988 19.1328 44.793 20.0215 43.4746 20.0215C42.1562 20.0215 41.1406 19.1328 41.1406 17.8438C41.1406 16.5742 42.1562 15.6758 43.4746 15.6758ZM43.4746 16.4863C42.6543 16.4863 42.0488 17.043 42.0488 17.8438C42.0488 18.6641 42.6543 19.2109 43.4746 19.2109C44.2754 19.2109 44.8906 18.6641 44.8906 17.8438C44.8906 17.043 44.2754 16.4863 43.4746 16.4863ZM57.7812 18.5176V19.2793H56.4238V23.8203H55.4961V15.0801H56.4238V18.5176H57.7812ZM50.8574 15.9297V20.8516C52.0781 20.8516 53.3525 20.749 54.7441 20.4609L54.8516 21.2422C53.3574 21.5449 51.9707 21.623 50.6621 21.623H49.9395V15.9297H50.8574ZM66.248 20.0508V20.8223H62.6738V23.8301H61.7656V20.8223H58.2402V20.0508H66.248ZM62.2246 15.4121C64.0703 15.4121 65.3398 16.1641 65.3398 17.3555C65.3398 18.5371 64.0703 19.2793 62.2246 19.2793C60.3691 19.2793 59.1094 18.5371 59.1094 17.3555C59.1094 16.1641 60.3691 15.4121 62.2246 15.4121ZM62.2246 16.1543C60.9258 16.1641 60.0566 16.6133 60.0664 17.3555C60.0566 18.0879 60.9258 18.5371 62.2246 18.5371C63.5234 18.5371 64.3926 18.0879 64.3926 17.3555C64.3926 16.6133 63.5234 16.1641 62.2246 16.1543ZM74.4219 15.0801V23.8301H73.5332V15.0801H74.4219ZM72.6445 15.2461V23.4004H71.7559V19.1816H70.7695C70.6914 20.8906 69.959 21.9551 68.875 21.9453C67.7324 21.9551 66.9902 20.7539 66.9902 18.8594C66.9902 16.9648 67.7324 15.7734 68.875 15.7832C69.9395 15.7734 70.6621 16.7842 70.7695 18.4297H71.7559V15.2461H72.6445ZM68.875 16.6523C68.2402 16.6523 67.8496 17.4629 67.8496 18.8594C67.8496 20.2559 68.2402 21.0664 68.875 21.0664C69.5195 21.0664 69.9199 20.2559 69.9199 18.8594C69.9199 17.4629 69.5195 16.6523 68.875 16.6523ZM81.9609 15.6074C83.8359 15.6172 85.1934 16.5352 85.1934 17.9316C85.1934 19.2451 84.0557 20.1094 82.4199 20.2461V21.9648H85.9844V22.7363H77.9766V21.9648H81.502V20.2461C79.876 20.1094 78.7383 19.2451 78.7383 17.9316C78.7383 16.5352 80.0957 15.6172 81.9609 15.6074ZM81.9609 16.3691C80.6133 16.3594 79.6367 16.9844 79.6367 17.9316C79.6367 18.918 80.6133 19.5234 81.9609 19.5332C83.3184 19.5234 84.2949 18.918 84.2949 17.9316C84.2949 16.9844 83.3184 16.3594 81.9609 16.3691ZM93.875 15.0898V21.4961H92.9473V15.0898H93.875ZM94.1387 22.8926V23.6445H88.1523V20.8906H89.0898V22.8926H94.1387ZM89.8027 16.4375C89.793 17.7168 90.6133 18.8887 91.9609 19.3574L91.4824 20.0996C90.4717 19.7236 89.7246 18.9814 89.334 18.0293C88.9482 19.0449 88.1914 19.8604 87.166 20.2559L86.668 19.5234C88.0449 19.0156 88.8555 17.7559 88.8555 16.4375V15.5684H89.8027V16.4375ZM104.998 15.0898V20.9688H104.07V18.2637H102.283V17.502H104.07V15.0898H104.998ZM102.225 15.7637C102.225 18.0488 100.809 19.6504 98.2402 20.4609L97.8301 19.7285C99.8857 19.1084 101.058 17.9756 101.238 16.5156H98.2793V15.7637H102.225ZM102.576 20.6074C102.576 21.7891 103.816 22.7656 105.457 23.0488L105.076 23.7812C103.748 23.5469 102.64 22.8779 102.117 21.916C101.58 22.8828 100.457 23.5518 99.1191 23.8008L98.7578 23.0586C100.408 22.7949 101.648 21.7988 101.658 20.6074V20.2461H102.576V20.6074ZM110.33 15.2266C112.303 15.2266 113.455 15.7539 113.455 16.7305C113.455 17.707 112.303 18.2441 110.33 18.2441C108.357 18.2441 107.205 17.707 107.205 16.7305C107.205 15.7539 108.357 15.2266 110.33 15.2266ZM110.33 15.9102C108.934 15.9102 108.162 16.2129 108.172 16.7305C108.162 17.2676 108.934 17.5508 110.33 17.5508C111.727 17.5508 112.498 17.2676 112.498 16.7305C112.498 16.2129 111.727 15.9102 110.33 15.9102ZM114.324 18.7812V19.5234H106.346V18.7812H114.324ZM113.318 20.1973V22.248H108.221V23.0293H113.562V23.7422H107.312V21.5742H112.4V20.8906H107.303V20.1973H113.318ZM124.314 15.0801V18.0781H125.564V18.8496H124.314V21.916H123.387V15.0801H124.314ZM124.627 22.8926V23.6445H118.66V21.457H119.588V22.8926H124.627ZM117.371 20.2168C118.045 20.2168 118.831 20.2119 119.656 20.1777V19.5723C118.66 19.4648 118.025 18.9814 118.035 18.2637C118.025 17.4141 118.855 16.9062 120.115 16.916C121.365 16.9062 122.195 17.4141 122.195 18.2637C122.195 18.9766 121.57 19.46 120.584 19.5723V20.1387C121.365 20.0947 122.156 20.0264 122.889 19.9141L122.967 20.5684C121.102 20.9199 118.992 20.9492 117.469 20.959L117.371 20.2168ZM122.645 15.8906V16.5742H117.596V15.8906H119.656V15.0508H120.584V15.8906H122.645ZM120.115 17.5508C119.363 17.5508 118.914 17.8145 118.914 18.2637C118.914 18.6934 119.363 18.957 120.115 18.957C120.857 18.957 121.307 18.6934 121.307 18.2637C121.307 17.8145 120.857 17.5508 120.115 17.5508ZM128.494 15.5879C129.222 15.583 129.842 15.8564 130.252 16.3105H132.439V15.0801H133.367V20.2461H132.439V19.0645H130.242C129.837 19.5137 129.217 19.7822 128.494 19.7773C127.176 19.7871 126.199 18.9082 126.199 17.6875C126.199 16.457 127.176 15.5781 128.494 15.5879ZM128.494 16.3887C127.674 16.3789 127.088 16.9062 127.088 17.6875C127.088 18.4492 127.674 18.9961 128.494 18.9863C129.295 18.9961 129.881 18.4492 129.881 17.6875C129.881 16.9062 129.295 16.3789 128.494 16.3887ZM130.438 20.4414C132.254 20.4414 133.396 21.0566 133.396 22.1309C133.396 23.1953 132.254 23.8203 130.438 23.8105C128.611 23.8203 127.469 23.1953 127.479 22.1309C127.469 21.0566 128.611 20.4414 130.438 20.4414ZM130.438 21.1543C129.158 21.1543 128.377 21.5059 128.387 22.1309C128.377 22.7363 129.158 23.0781 130.438 23.0781C131.727 23.0781 132.488 22.7363 132.488 22.1309C132.488 21.5059 131.727 21.1543 130.438 21.1543ZM130.672 17.0527C130.735 17.248 130.77 17.4629 130.77 17.6875C130.77 17.9023 130.735 18.1123 130.682 18.3027H132.439V17.0527H130.672ZM139.041 16.5254V17.2773H134.695V16.5254H136.414V15.334H137.332V16.5254H139.041ZM136.873 17.8047C137.986 17.8047 138.768 18.6348 138.777 19.8164C138.768 21.0078 137.986 21.8477 136.873 21.8477C135.779 21.8477 134.969 21.0078 134.979 19.8164C134.969 18.6348 135.779 17.8047 136.873 17.8047ZM136.873 18.5762C136.238 18.5762 135.799 19.0938 135.799 19.8164C135.799 20.5586 136.238 21.0566 136.873 21.0566C137.498 21.0566 137.957 20.5586 137.957 19.8164C137.957 19.0938 137.498 18.5762 136.873 18.5762ZM142.205 15.0801V23.8301H141.326V19.4844H140.32V23.4199H139.441V15.2754H140.32V18.7227H141.326V15.0801H142.205ZM151.365 21.9648V22.7363H143.357V21.9648H145.271V19.6797C144.554 19.2842 144.119 18.6543 144.119 17.873C144.119 16.4961 145.467 15.5879 147.342 15.5879C149.227 15.5879 150.574 16.4961 150.574 17.873C150.574 18.6445 150.154 19.2646 149.451 19.6602V21.9648H151.365ZM147.342 16.3301C145.965 16.3301 145.018 16.9258 145.018 17.873C145.018 18.8105 145.965 19.4258 147.342 19.4258C148.709 19.4258 149.676 18.8105 149.676 17.873C149.676 16.9258 148.709 16.3301 147.342 16.3301ZM146.189 21.9648H148.514V20.0117C148.157 20.1045 147.762 20.1484 147.342 20.1484C146.932 20.1484 146.541 20.1045 146.189 20.0215V21.9648ZM153.611 15.9297L153.523 20.959H152.557L152.469 15.9297H153.611ZM153.045 23.0684C152.664 23.0684 152.342 22.7559 152.352 22.375C152.342 21.9941 152.664 21.6816 153.045 21.6816C153.416 21.6816 153.738 21.9941 153.738 22.375C153.738 22.7559 153.416 23.0684 153.045 23.0684Z" fill="#F0F2F8"/>
<path d="M43.1582 30.9785V32.2227H39.043V37.9785C40.9707 37.9648 42.3311 37.8828 43.8691 37.5957L44.0332 38.8262C42.2969 39.168 40.8066 39.2363 38.4961 39.2363H37.5117V30.9785H43.1582ZM47.2871 29.8574V42.2305H45.7695V35.4492H42.502V34.2051H45.7695V29.8574H47.2871ZM61.0801 29.8574V32.5234H62.8027V33.7812H61.0801V36.0781H59.5625V29.8574H61.0801ZM57.6074 30.6504V35.75H51.7559V30.6504H57.6074ZM53.2461 31.8398V34.5605H56.1172V31.8398H53.2461ZM53.998 37.1309V40.6309C54.709 40.5967 55.4404 40.4941 56.1445 40.2617L56.3633 41.4512C55.2695 41.834 54.2168 41.875 53.1641 41.875H52.5078V37.1309H53.998ZM62.1602 37.2676V38.3613H55.9395V37.2676H58.3184V36.2969H59.8086V37.2676H62.1602ZM59.043 38.7305C60.4375 38.7305 61.4082 39.3867 61.4082 40.4668C61.4082 41.5195 60.4375 42.1895 59.043 42.1895C57.6348 42.1895 56.6777 41.5195 56.6914 40.4668C56.6777 39.3867 57.6348 38.7305 59.043 38.7305ZM59.043 39.7695C58.4551 39.7695 58.0312 40.0156 58.0449 40.4668C58.0312 40.918 58.4551 41.1641 59.043 41.1641C59.6172 41.1641 60.041 40.918 60.041 40.4668C60.041 40.0156 59.6172 39.7695 59.043 39.7695ZM74.1973 36.2422V37.459H62.9316V36.2422H74.1973ZM72.9258 40.7402V41.9707H64.3262V38.375H65.8438V40.7402H72.9258ZM68.5508 30.2539C71.2441 30.2539 72.9941 31.1973 73.0078 32.7559C72.9941 34.3281 71.2441 35.2852 68.5508 35.2852C65.8574 35.2852 64.0938 34.3281 64.0938 32.7559C64.0938 31.1973 65.8574 30.2539 68.5508 30.2539ZM68.5508 31.4707C66.7598 31.4707 65.666 31.9355 65.6797 32.7559C65.666 33.5898 66.7598 34.0547 68.5508 34.041C70.3555 34.0547 71.4355 33.5898 71.4355 32.7559C71.4355 31.9355 70.3555 31.4707 68.5508 31.4707ZM88.6328 37.0488V38.252H83.7109V42.2168H82.207V38.252H77.3398V37.0488H88.6328ZM80.2109 30.3496V31.8672H85.7344V30.3496H87.2656V35.7637H78.707V30.3496H80.2109ZM80.2109 34.5332H85.7344V33.0703H80.2109V34.5332ZM95.3379 31.5527C95.3379 33.4668 97.2109 35.3809 99.7949 35.832L99.1113 37.1035C97.04 36.666 95.3447 35.415 94.5449 33.7539C93.7246 35.4014 92.0293 36.6592 89.9648 37.1035L89.2949 35.832C91.8516 35.3672 93.7109 33.4531 93.7246 31.5527V30.6367H95.3379V31.5527ZM100.246 39.3867V40.6445H88.9531V39.3867H100.246ZM113.314 32.8652V34.0684H104.811V30.2949H113.205V31.5254H106.328V32.8652H113.314ZM114.641 34.8477V36.0508H109.746V37.0078H113.232V40.0156H106.205V40.9316H113.574V42.0938H104.715V38.9492H111.742V38.1289H104.701V37.0078H108.242V36.0508H103.375V34.8477H114.641ZM125.324 29.8574V42.2305H123.807V35.6543H121.688V34.4102H123.807V29.8574H125.324ZM120.977 30.9375V35.4629H116.93V38.0605C118.762 38.0537 120.245 37.9922 121.906 37.6914L122.029 38.9355C120.184 39.2637 118.543 39.332 116.41 39.332H115.426V34.2324H119.486V32.168H115.385V30.9375H120.977ZM137.867 39.4824V40.7266H126.574V39.4824H131.441V37.0762H127.818V30.6777H129.336V32.7012H135.064V30.6777H136.582V37.0762H132.945V39.4824H137.867ZM129.336 35.8457H135.064V33.918H129.336V35.8457ZM148.496 29.8574V42.2168H146.965V29.8574H148.496ZM144.805 31.1699C144.805 34.8477 143.383 37.9785 139.049 40.0293L138.256 38.8125C141.489 37.2744 142.993 35.1826 143.26 32.373H138.885V31.1699H144.805Z" fill="white"/>
</g>
<g filter="url(#filter1_d_4263_16113)">
<path d="M8.32119 29.9285C7.48305 29.5932 7.48305 28.4068 8.32119 28.0715L16 25L16 33L8.32119 29.9285Z" fill="#1A1E27" fill-opacity="0.8" shape-rendering="crispEdges"/>
</g>
<defs>
<filter id="filter0_d_4263_16113" x="9" y="0" width="169" height="60" filterUnits="userSpaceOnUse" color-interpolation-filters="sRGB">
<feFlood flood-opacity="0" result="BackgroundImageFix"/>
<feColorMatrix in="SourceAlpha" type="matrix" values="0 0 0 0 0 0 0 0 0 0 0 0 0 0 0 0 0 0 127 0" result="hardAlpha"/>
<feMorphology radius="2" operator="dilate" in="SourceAlpha" result="effect1_dropShadow_4263_16113"/>
<feOffset dy="1"/>
<feGaussianBlur stdDeviation="2.5"/>
<feComposite in2="hardAlpha" operator="out"/>
<feColorMatrix type="matrix" values="0 0 0 0 0.101961 0 0 0 0 0.117647 0 0 0 0 0.152941 0 0 0 0.1 0"/>
<feBlend mode="normal" in2="BackgroundImageFix" result="effect1_dropShadow_4263_16113"/>
<feBlend mode="normal" in="SourceGraphic" in2="effect1_dropShadow_4263_16113" result="shape"/>
</filter>
<filter id="filter1_d_4263_16113" x="0.692383" y="19" width="22.3076" height="22" filterUnits="userSpaceOnUse" color-interpolation-filters="sRGB">
<feFlood flood-opacity="0" result="BackgroundImageFix"/>
<feColorMatrix in="SourceAlpha" type="matrix" values="0 0 0 0 0 0 0 0 0 0 0 0 0 0 0 0 0 0 127 0" result="hardAlpha"/>
<feMorphology radius="2" operator="dilate" in="SourceAlpha" result="effect1_dropShadow_4263_16113"/>
<feOffset dy="1"/>
<feGaussianBlur stdDeviation="2.5"/>
<feComposite in2="hardAlpha" operator="out"/>
<feColorMatrix type="matrix" values="0 0 0 0 0.101961 0 0 0 0 0.117647 0 0 0 0 0.152941 0 0 0 0.1 0"/>
<feBlend mode="normal" in2="BackgroundImageFix" result="effect1_dropShadow_4263_16113"/>
<feBlend mode="normal" in="SourceGraphic" in2="effect1_dropShadow_4263_16113" result="shape"/>
</filter>
</defs>
</svg>
