<svg width="147" height="58" viewBox="0 0 147 58" fill="none" xmlns="http://www.w3.org/2000/svg">
<path d="M0 8H143C145.209 8 147 9.79086 147 12V54C147 56.2091 145.209 58 143 58H4C1.79086 58 0 56.2091 0 54V8Z" fill="#1A1E27" fill-opacity="0.6"/>
<path d="M19.1387 19.0801V22.498H20.5449V23.2793H19.1387V27.8496H18.2207V19.0801H19.1387ZM16.668 19.8711V23.084H13.6016V24.9785C15.1055 24.9736 16.2188 24.9199 17.498 24.6855L17.5859 25.4375C16.2188 25.6914 15.0371 25.75 13.3965 25.7598H12.6836V22.332H15.75V20.623H12.6641V19.8711H16.668ZM28.2207 19.0898V25.4473H27.293V19.0898H28.2207ZM28.4844 26.8926V27.6445H22.498V24.8027H23.4355V26.8926H28.4844ZM23.4746 19.6758C24.793 19.6758 25.7988 20.5742 25.7988 21.8438C25.7988 23.1328 24.793 24.0215 23.4746 24.0215C22.1562 24.0215 21.1406 23.1328 21.1406 21.8438C21.1406 20.5742 22.1562 19.6758 23.4746 19.6758ZM23.4746 20.4863C22.6543 20.4863 22.0488 21.043 22.0488 21.8438C22.0488 22.6641 22.6543 23.2109 23.4746 23.2109C24.2754 23.2109 24.8906 22.6641 24.8906 21.8438C24.8906 21.043 24.2754 20.4863 23.4746 20.4863ZM37.7812 22.5176V23.2793H36.4238V27.8203H35.4961V19.0801H36.4238V22.5176H37.7812ZM30.8574 19.9297V24.8516C32.0781 24.8516 33.3525 24.749 34.7441 24.4609L34.8516 25.2422C33.3574 25.5449 31.9707 25.623 30.6621 25.623H29.9395V19.9297H30.8574ZM46.248 24.0508V24.8223H42.6738V27.8301H41.7656V24.8223H38.2402V24.0508H46.248ZM42.2246 19.4121C44.0703 19.4121 45.3398 20.1641 45.3398 21.3555C45.3398 22.5371 44.0703 23.2793 42.2246 23.2793C40.3691 23.2793 39.1094 22.5371 39.1094 21.3555C39.1094 20.1641 40.3691 19.4121 42.2246 19.4121ZM42.2246 20.1543C40.9258 20.1641 40.0566 20.6133 40.0664 21.3555C40.0566 22.0879 40.9258 22.5371 42.2246 22.5371C43.5234 22.5371 44.3926 22.0879 44.3926 21.3555C44.3926 20.6133 43.5234 20.1641 42.2246 20.1543ZM54.4219 19.0801V27.8301H53.5332V19.0801H54.4219ZM52.6445 19.2461V27.4004H51.7559V23.1816H50.7695C50.6914 24.8906 49.959 25.9551 48.875 25.9453C47.7324 25.9551 46.9902 24.7539 46.9902 22.8594C46.9902 20.9648 47.7324 19.7734 48.875 19.7832C49.9395 19.7734 50.6621 20.7842 50.7695 22.4297H51.7559V19.2461H52.6445ZM48.875 20.6523C48.2402 20.6523 47.8496 21.4629 47.8496 22.8594C47.8496 24.2559 48.2402 25.0664 48.875 25.0664C49.5195 25.0664 49.9199 24.2559 49.9199 22.8594C49.9199 21.4629 49.5195 20.6523 48.875 20.6523ZM61.9609 19.6074C63.8359 19.6172 65.1934 20.5352 65.1934 21.9316C65.1934 23.2451 64.0557 24.1094 62.4199 24.2461V25.9648H65.9844V26.7363H57.9766V25.9648H61.502V24.2461C59.876 24.1094 58.7383 23.2451 58.7383 21.9316C58.7383 20.5352 60.0957 19.6172 61.9609 19.6074ZM61.9609 20.3691C60.6133 20.3594 59.6367 20.9844 59.6367 21.9316C59.6367 22.918 60.6133 23.5234 61.9609 23.5332C63.3184 23.5234 64.2949 22.918 64.2949 21.9316C64.2949 20.9844 63.3184 20.3594 61.9609 20.3691ZM73.875 19.0898V25.4961H72.9473V19.0898H73.875ZM74.1387 26.8926V27.6445H68.1523V24.8906H69.0898V26.8926H74.1387ZM69.8027 20.4375C69.793 21.7168 70.6133 22.8887 71.9609 23.3574L71.4824 24.0996C70.4717 23.7236 69.7246 22.9814 69.334 22.0293C68.9482 23.0449 68.1914 23.8604 67.166 24.2559L66.668 23.5234C68.0449 23.0156 68.8555 21.7559 68.8555 20.4375V19.5684H69.8027V20.4375ZM84.998 19.0898V24.9688H84.0703V22.2637H82.2832V21.502H84.0703V19.0898H84.998ZM82.2246 19.7637C82.2246 22.0488 80.8086 23.6504 78.2402 24.4609L77.8301 23.7285C79.8857 23.1084 81.0576 21.9756 81.2383 20.5156H78.2793V19.7637H82.2246ZM82.5762 24.6074C82.5762 25.7891 83.8164 26.7656 85.457 27.0488L85.0762 27.7812C83.748 27.5469 82.6396 26.8779 82.1172 25.916C81.5801 26.8828 80.457 27.5518 79.1191 27.8008L78.7578 27.0586C80.4082 26.7949 81.6484 25.7988 81.6582 24.6074V24.2461H82.5762V24.6074ZM90.3301 19.2266C92.3027 19.2266 93.4551 19.7539 93.4551 20.7305C93.4551 21.707 92.3027 22.2441 90.3301 22.2441C88.3574 22.2441 87.2051 21.707 87.2051 20.7305C87.2051 19.7539 88.3574 19.2266 90.3301 19.2266ZM90.3301 19.9102C88.9336 19.9102 88.1621 20.2129 88.1719 20.7305C88.1621 21.2676 88.9336 21.5508 90.3301 21.5508C91.7266 21.5508 92.498 21.2676 92.498 20.7305C92.498 20.2129 91.7266 19.9102 90.3301 19.9102ZM94.3242 22.7812V23.5234H86.3457V22.7812H94.3242ZM93.3184 24.1973V26.248H88.2207V27.0293H93.5625V27.7422H87.3125V25.5742H92.4004V24.8906H87.3027V24.1973H93.3184ZM104.314 19.0801V22.0781H105.564V22.8496H104.314V25.916H103.387V19.0801H104.314ZM104.627 26.8926V27.6445H98.6602V25.457H99.5879V26.8926H104.627ZM97.3711 24.2168C98.0449 24.2168 98.8311 24.2119 99.6562 24.1777V23.5723C98.6602 23.4648 98.0254 22.9814 98.0352 22.2637C98.0254 21.4141 98.8555 20.9062 100.115 20.916C101.365 20.9062 102.195 21.4141 102.195 22.2637C102.195 22.9766 101.57 23.46 100.584 23.5723V24.1387C101.365 24.0947 102.156 24.0264 102.889 23.9141L102.967 24.5684C101.102 24.9199 98.9922 24.9492 97.4688 24.959L97.3711 24.2168ZM102.645 19.8906V20.5742H97.5957V19.8906H99.6562V19.0508H100.584V19.8906H102.645ZM100.115 21.5508C99.3633 21.5508 98.9141 21.8145 98.9141 22.2637C98.9141 22.6934 99.3633 22.957 100.115 22.957C100.857 22.957 101.307 22.6934 101.307 22.2637C101.307 21.8145 100.857 21.5508 100.115 21.5508ZM108.494 19.5879C109.222 19.583 109.842 19.8564 110.252 20.3105H112.439V19.0801H113.367V24.2461H112.439V23.0645H110.242C109.837 23.5137 109.217 23.7822 108.494 23.7773C107.176 23.7871 106.199 22.9082 106.199 21.6875C106.199 20.457 107.176 19.5781 108.494 19.5879ZM108.494 20.3887C107.674 20.3789 107.088 20.9062 107.088 21.6875C107.088 22.4492 107.674 22.9961 108.494 22.9863C109.295 22.9961 109.881 22.4492 109.881 21.6875C109.881 20.9062 109.295 20.3789 108.494 20.3887ZM110.438 24.4414C112.254 24.4414 113.396 25.0566 113.396 26.1309C113.396 27.1953 112.254 27.8203 110.438 27.8105C108.611 27.8203 107.469 27.1953 107.479 26.1309C107.469 25.0566 108.611 24.4414 110.438 24.4414ZM110.438 25.1543C109.158 25.1543 108.377 25.5059 108.387 26.1309C108.377 26.7363 109.158 27.0781 110.438 27.0781C111.727 27.0781 112.488 26.7363 112.488 26.1309C112.488 25.5059 111.727 25.1543 110.438 25.1543ZM110.672 21.0527C110.735 21.248 110.77 21.4629 110.77 21.6875C110.77 21.9023 110.735 22.1123 110.682 22.3027H112.439V21.0527H110.672ZM119.041 20.5254V21.2773H114.695V20.5254H116.414V19.334H117.332V20.5254H119.041ZM116.873 21.8047C117.986 21.8047 118.768 22.6348 118.777 23.8164C118.768 25.0078 117.986 25.8477 116.873 25.8477C115.779 25.8477 114.969 25.0078 114.979 23.8164C114.969 22.6348 115.779 21.8047 116.873 21.8047ZM116.873 22.5762C116.238 22.5762 115.799 23.0938 115.799 23.8164C115.799 24.5586 116.238 25.0566 116.873 25.0566C117.498 25.0566 117.957 24.5586 117.957 23.8164C117.957 23.0938 117.498 22.5762 116.873 22.5762ZM122.205 19.0801V27.8301H121.326V23.4844H120.32V27.4199H119.441V19.2754H120.32V22.7227H121.326V19.0801H122.205ZM131.365 25.9648V26.7363H123.357V25.9648H125.271V23.6797C124.554 23.2842 124.119 22.6543 124.119 21.873C124.119 20.4961 125.467 19.5879 127.342 19.5879C129.227 19.5879 130.574 20.4961 130.574 21.873C130.574 22.6445 130.154 23.2646 129.451 23.6602V25.9648H131.365ZM127.342 20.3301C125.965 20.3301 125.018 20.9258 125.018 21.873C125.018 22.8105 125.965 23.4258 127.342 23.4258C128.709 23.4258 129.676 22.8105 129.676 21.873C129.676 20.9258 128.709 20.3301 127.342 20.3301ZM126.189 25.9648H128.514V24.0117C128.157 24.1045 127.762 24.1484 127.342 24.1484C126.932 24.1484 126.541 24.1045 126.189 24.0215V25.9648ZM133.611 19.9297L133.523 24.959H132.557L132.469 19.9297H133.611ZM133.045 27.0684C132.664 27.0684 132.342 26.7559 132.352 26.375C132.342 25.9941 132.664 25.6816 133.045 25.6816C133.416 25.6816 133.738 25.9941 133.738 26.375C133.738 26.7559 133.416 27.0684 133.045 27.0684Z" fill="white"/>
<path d="M18.6582 34.9785V36.2227H14.543V41.9785C16.4707 41.9648 17.8311 41.8828 19.3691 41.5957L19.5332 42.8262C17.7969 43.168 16.3066 43.2363 13.9961 43.2363H13.0117V34.9785H18.6582ZM22.7871 33.8574V46.2305H21.2695V39.4492H18.002V38.2051H21.2695V33.8574H22.7871ZM36.5801 33.8574V36.5234H38.3027V37.7812H36.5801V40.0781H35.0625V33.8574H36.5801ZM33.1074 34.6504V39.75H27.2559V34.6504H33.1074ZM28.7461 35.8398V38.5605H31.6172V35.8398H28.7461ZM29.498 41.1309V44.6309C30.209 44.5967 30.9404 44.4941 31.6445 44.2617L31.8633 45.4512C30.7695 45.834 29.7168 45.875 28.6641 45.875H28.0078V41.1309H29.498ZM37.6602 41.2676V42.3613H31.4395V41.2676H33.8184V40.2969H35.3086V41.2676H37.6602ZM34.543 42.7305C35.9375 42.7305 36.9082 43.3867 36.9082 44.4668C36.9082 45.5195 35.9375 46.1895 34.543 46.1895C33.1348 46.1895 32.1777 45.5195 32.1914 44.4668C32.1777 43.3867 33.1348 42.7305 34.543 42.7305ZM34.543 43.7695C33.9551 43.7695 33.5312 44.0156 33.5449 44.4668C33.5312 44.918 33.9551 45.1641 34.543 45.1641C35.1172 45.1641 35.541 44.918 35.541 44.4668C35.541 44.0156 35.1172 43.7695 34.543 43.7695ZM49.6973 40.2422V41.459H38.4316V40.2422H49.6973ZM48.4258 44.7402V45.9707H39.8262V42.375H41.3438V44.7402H48.4258ZM44.0508 34.2539C46.7441 34.2539 48.4941 35.1973 48.5078 36.7559C48.4941 38.3281 46.7441 39.2852 44.0508 39.2852C41.3574 39.2852 39.5938 38.3281 39.5938 36.7559C39.5938 35.1973 41.3574 34.2539 44.0508 34.2539ZM44.0508 35.4707C42.2598 35.4707 41.166 35.9355 41.1797 36.7559C41.166 37.5898 42.2598 38.0547 44.0508 38.041C45.8555 38.0547 46.9355 37.5898 46.9355 36.7559C46.9355 35.9355 45.8555 35.4707 44.0508 35.4707ZM64.1328 41.0488V42.252H59.2109V46.2168H57.707V42.252H52.8398V41.0488H64.1328ZM55.7109 34.3496V35.8672H61.2344V34.3496H62.7656V39.7637H54.207V34.3496H55.7109ZM55.7109 38.5332H61.2344V37.0703H55.7109V38.5332ZM70.8379 35.5527C70.8379 37.4668 72.7109 39.3809 75.2949 39.832L74.6113 41.1035C72.54 40.666 70.8447 39.415 70.0449 37.7539C69.2246 39.4014 67.5293 40.6592 65.4648 41.1035L64.7949 39.832C67.3516 39.3672 69.2109 37.4531 69.2246 35.5527V34.6367H70.8379V35.5527ZM75.7461 43.3867V44.6445H64.4531V43.3867H75.7461ZM88.8145 36.8652V38.0684H80.3105V34.2949H88.7051V35.5254H81.8281V36.8652H88.8145ZM90.1406 38.8477V40.0508H85.2461V41.0078H88.7324V44.0156H81.7051V44.9316H89.0742V46.0938H80.2148V42.9492H87.2422V42.1289H80.2012V41.0078H83.7422V40.0508H78.875V38.8477H90.1406ZM100.824 33.8574V46.2305H99.3066V39.6543H97.1875V38.4102H99.3066V33.8574H100.824ZM96.4766 34.9375V39.4629H92.4297V42.0605C94.2617 42.0537 95.7451 41.9922 97.4062 41.6914L97.5293 42.9355C95.6836 43.2637 94.043 43.332 91.9102 43.332H90.9258V38.2324H94.9863V36.168H90.8848V34.9375H96.4766ZM113.367 43.4824V44.7266H102.074V43.4824H106.941V41.0762H103.318V34.6777H104.836V36.7012H110.564V34.6777H112.082V41.0762H108.445V43.4824H113.367ZM104.836 39.8457H110.564V37.918H104.836V39.8457ZM123.996 33.8574V46.2168H122.465V33.8574H123.996ZM120.305 35.1699C120.305 38.8477 118.883 41.9785 114.549 44.0293L113.756 42.8125C116.989 41.2744 118.493 39.1826 118.76 36.373H114.385V35.1699H120.305Z" fill="white"/>
<path d="M0 1.86852C0 1.06982 0.890145 0.59343 1.5547 1.03647L12 8H0V1.86852Z" fill="#1A1E27" fill-opacity="0.6"/>
</svg>
